<svg width="40" height="41" viewBox="0 0 40 41" fill="none" xmlns="http://www.w3.org/2000/svg">
<path fill-rule="evenodd" clip-rule="evenodd" d="M30 29.5776H26.0961V22.9284C26.0961 21.1054 25.4034 20.0866 23.9604 20.0866C22.3907 20.0866 21.5706 21.1468 21.5706 22.9284V29.5776H17.8083V16.911H21.5706V18.6172C21.5706 18.6172 22.7018 16.524 25.3898 16.524C28.0765 16.524 30 18.1647 30 21.5579V29.5776ZM13.32 15.2524C12.0384 15.2524 11 14.2058 11 12.915C11 11.6242 12.0384 10.5776 13.32 10.5776C14.6015 10.5776 15.6393 11.6242 15.6393 12.915C15.6393 14.2058 14.6015 15.2524 13.32 15.2524ZM11.3773 29.5776H15.3004V16.911H11.3773V29.5776Z" fill="#D8D8D8"/>
</svg>
