<svg width="40" height="41" viewBox="0 0 40 41" fill="none" xmlns="http://www.w3.org/2000/svg">
<path d="M31.612 15.0413L31.6124 15.0427C31.8612 15.9515 32.0006 17.4144 32.0737 18.7109C32.1096 19.3464 32.1286 19.9211 32.1386 20.3369C32.1436 20.5447 32.1464 20.7123 32.1479 20.8274C32.1486 20.885 32.149 20.9294 32.1493 20.9592L32.1495 20.9927L32.1496 21.0008L32.1496 21.0017L32.1496 21.0098L32.1494 21.0434C32.1493 21.0732 32.1491 21.1178 32.1485 21.1756C32.1475 21.2911 32.1454 21.4593 32.1411 21.6676C32.1327 22.0846 32.1157 22.6607 32.0819 23.2971C32.0129 24.5964 31.8774 26.0567 31.6295 26.9546L31.6287 26.9577C31.4089 27.7656 30.7568 28.414 29.9279 28.634L29.9248 28.6348C29.5089 28.7469 28.6993 28.8453 27.6467 28.9223C26.6182 28.9975 25.4267 29.0481 24.2902 29.0819C23.1552 29.1157 22.0818 29.1326 21.2919 29.1411C20.8971 29.1453 20.5734 29.1474 20.3487 29.1485C20.2364 29.149 20.1488 29.1493 20.0895 29.1494L20.022 29.1495L20.005 29.1495L20.0008 29.1495H19.9998H19.9996L19.9996 29.9995L19.9995 29.1495H19.9993H19.9983L19.9941 29.1495L19.9771 29.1495L19.9097 29.1494C19.8503 29.1493 19.7627 29.149 19.6504 29.1485C19.4257 29.1474 19.1021 29.1453 18.7073 29.1411C17.9173 29.1326 16.844 29.1157 15.7089 29.0819C14.5725 29.0481 13.3809 28.9975 12.3525 28.9223C11.2999 28.8453 10.4902 28.7469 10.0743 28.6348L10.0712 28.634C9.24237 28.414 8.59022 27.7656 8.37048 26.9577L8.37009 26.9563C8.12163 26.049 7.98618 24.5874 7.91721 23.2909C7.88341 22.6555 7.86647 22.081 7.858 21.6652C7.85377 21.4576 7.85166 21.29 7.85061 21.1749C7.85009 21.1173 7.84983 21.0729 7.8497 21.0432L7.84959 21.0097L7.84957 21.0017L7.84957 20.9998L7.84957 20.9996V20.9995V20.9995V20.9995V20.9994L7.84957 20.9992L7.84957 20.9973L7.84959 20.9892L7.8497 20.9558C7.84982 20.926 7.85007 20.8815 7.85058 20.8239C7.8516 20.7088 7.85365 20.5412 7.85775 20.3335C7.86597 19.9179 7.8824 19.3436 7.91519 18.7089C7.98206 17.4148 8.11337 15.957 8.35422 15.0562C8.57437 14.249 9.22621 13.6013 10.0546 13.3815L10.0546 13.3815L10.0576 13.3807C10.4742 13.2685 11.2845 13.1691 12.337 13.0905C13.3656 13.0138 14.5573 12.9612 15.6938 12.9253C16.8289 12.8895 17.9022 12.8705 18.6922 12.8605C19.0871 12.8555 19.4107 12.8528 19.6354 12.8513C19.7478 12.8505 19.8353 12.8501 19.8947 12.8498L19.9621 12.8496L19.9792 12.8495L19.9833 12.8495L19.9841 12.8495L19.9883 12.8495L20.0053 12.8495L20.0728 12.8496C20.1321 12.8498 20.2197 12.85 20.332 12.8506C20.5567 12.8516 20.8804 12.8537 21.2752 12.858C22.0652 12.8664 23.1385 12.8833 24.2735 12.9171C25.41 12.951 26.6015 13.0015 27.63 13.0767C28.6826 13.1537 29.4922 13.2522 29.9081 13.3642L29.9112 13.365C30.7401 13.585 31.3922 14.2334 31.612 15.0413Z" stroke="#EBEBEB" stroke-width="1.7"/>
<path d="M31.612 15.0413L31.6124 15.0427C31.8612 15.9515 32.0006 17.4144 32.0737 18.7109C32.1096 19.3464 32.1286 19.9211 32.1386 20.3369C32.1436 20.5447 32.1464 20.7123 32.1479 20.8274C32.1486 20.885 32.149 20.9294 32.1493 20.9592L32.1495 20.9927L32.1496 21.0008L32.1496 21.0017L32.1496 21.0098L32.1494 21.0434C32.1493 21.0732 32.1491 21.1178 32.1485 21.1756C32.1475 21.2911 32.1454 21.4593 32.1411 21.6676C32.1327 22.0846 32.1157 22.6607 32.0819 23.2971C32.0129 24.5964 31.8774 26.0567 31.6295 26.9546L31.6287 26.9577C31.4089 27.7656 30.7568 28.414 29.9279 28.634L29.9248 28.6348C29.5089 28.7469 28.6993 28.8453 27.6467 28.9223C26.6182 28.9975 25.4267 29.0481 24.2902 29.0819C23.1552 29.1157 22.0818 29.1326 21.2919 29.1411C20.8971 29.1453 20.5734 29.1474 20.3487 29.1485C20.2364 29.149 20.1488 29.1493 20.0895 29.1494L20.022 29.1495L20.005 29.1495L20.0008 29.1495H19.9998H19.9996L19.9996 29.9995L19.9995 29.1495H19.9993H19.9983L19.9941 29.1495L19.9771 29.1495L19.9097 29.1494C19.8503 29.1493 19.7627 29.149 19.6504 29.1485C19.4257 29.1474 19.1021 29.1453 18.7073 29.1411C17.9173 29.1326 16.844 29.1157 15.7089 29.0819C14.5725 29.0481 13.3809 28.9975 12.3525 28.9223C11.2999 28.8453 10.4902 28.7469 10.0743 28.6348L10.0712 28.634C9.24237 28.414 8.59022 27.7656 8.37048 26.9577L8.37009 26.9563C8.12163 26.049 7.98618 24.5874 7.91721 23.2909C7.88341 22.6555 7.86647 22.081 7.858 21.6652C7.85377 21.4576 7.85166 21.29 7.85061 21.1749C7.85009 21.1173 7.84983 21.0729 7.8497 21.0432L7.84959 21.0097L7.84957 21.0017L7.84957 20.9998L7.84957 20.9996V20.9995V20.9995V20.9995V20.9994L7.84957 20.9992L7.84957 20.9973L7.84959 20.9892L7.8497 20.9558C7.84982 20.926 7.85007 20.8815 7.85058 20.8239C7.8516 20.7088 7.85365 20.5412 7.85775 20.3335C7.86597 19.9179 7.8824 19.3436 7.91519 18.7089C7.98206 17.4148 8.11337 15.957 8.35422 15.0562C8.57437 14.249 9.22621 13.6013 10.0546 13.3815L10.0546 13.3815L10.0576 13.3807C10.4742 13.2685 11.2845 13.1691 12.337 13.0905C13.3656 13.0138 14.5573 12.9612 15.6938 12.9253C16.8289 12.8895 17.9022 12.8705 18.6922 12.8605C19.0871 12.8555 19.4107 12.8528 19.6354 12.8513C19.7478 12.8505 19.8353 12.8501 19.8947 12.8498L19.9621 12.8496L19.9792 12.8495L19.9833 12.8495L19.9841 12.8495L19.9883 12.8495L20.0053 12.8495L20.0728 12.8496C20.1321 12.8498 20.2197 12.85 20.332 12.8506C20.5567 12.8516 20.8804 12.8537 21.2752 12.858C22.0652 12.8664 23.1385 12.8833 24.2735 12.9171C25.41 12.951 26.6015 13.0015 27.63 13.0767C28.6826 13.1537 29.4922 13.2522 29.9081 13.3642L29.9112 13.365C30.7401 13.585 31.3922 14.2334 31.612 15.0413Z" stroke="#D8D8D8" stroke-width="1.7"/>
<path d="M17.9996 24.9995L23.9996 20.9995L17.9996 16.9995V24.9995Z" fill="#D8D8D8"/>
</svg>
