<svg width="40" height="41" viewBox="0 0 40 41" fill="none" xmlns="http://www.w3.org/2000/svg">
<path d="M19.9999 10.5776C14.4772 10.5776 10 15.0549 10 20.5777C10 26.1008 14.4772 30.5776 19.9999 30.5776C25.5232 30.5776 30 26.1008 30 20.5777C30 15.0552 25.5232 10.5781 19.9998 10.5781L19.9999 10.5776ZM24.5858 25.0006C24.4067 25.2944 24.0222 25.3875 23.7285 25.2072C21.3806 23.773 18.4249 23.4482 14.944 24.2435C14.6086 24.3199 14.2742 24.1098 14.1978 23.7742C14.121 23.4386 14.3304 23.1043 14.6666 23.0279C18.4759 22.1572 21.7434 22.5323 24.3793 24.1432C24.673 24.3235 24.7662 24.7068 24.5858 25.0006ZM25.8098 22.2773C25.5841 22.6445 25.1041 22.7604 24.7375 22.5347C22.0495 20.8821 17.9521 20.4036 14.7728 21.3687C14.3605 21.4933 13.925 21.2609 13.7998 20.8492C13.6756 20.4369 13.9081 20.0022 14.3197 19.8768C17.9514 18.7749 22.4663 19.3087 25.5531 21.2056C25.9197 21.4313 26.0355 21.9112 25.8098 22.2773ZM25.9149 19.4419C22.692 17.5276 17.3745 17.3516 14.2974 18.2855C13.8033 18.4354 13.2807 18.1564 13.131 17.6623C12.9812 17.1679 13.26 16.6457 13.7544 16.4955C17.2868 15.4231 23.1589 15.6303 26.8695 17.8332C27.3149 18.097 27.4606 18.671 27.1967 19.1149C26.934 19.5593 26.3584 19.7058 25.9154 19.4419H25.9149Z" fill="#EBEBEB"/>
<path d="M19.9999 10.5776C14.4772 10.5776 10 15.0549 10 20.5777C10 26.1008 14.4772 30.5776 19.9999 30.5776C25.5232 30.5776 30 26.1008 30 20.5777C30 15.0552 25.5232 10.5781 19.9998 10.5781L19.9999 10.5776ZM24.5858 25.0006C24.4067 25.2944 24.0222 25.3875 23.7285 25.2072C21.3806 23.773 18.4249 23.4482 14.944 24.2435C14.6086 24.3199 14.2742 24.1098 14.1978 23.7742C14.121 23.4386 14.3304 23.1043 14.6666 23.0279C18.4759 22.1572 21.7434 22.5323 24.3793 24.1432C24.673 24.3235 24.7662 24.7068 24.5858 25.0006ZM25.8098 22.2773C25.5841 22.6445 25.1041 22.7604 24.7375 22.5347C22.0495 20.8821 17.9521 20.4036 14.7728 21.3687C14.3605 21.4933 13.925 21.2609 13.7998 20.8492C13.6756 20.4369 13.9081 20.0022 14.3197 19.8768C17.9514 18.7749 22.4663 19.3087 25.5531 21.2056C25.9197 21.4313 26.0355 21.9112 25.8098 22.2773ZM25.9149 19.4419C22.692 17.5276 17.3745 17.3516 14.2974 18.2855C13.8033 18.4354 13.2807 18.1564 13.131 17.6623C12.9812 17.1679 13.26 16.6457 13.7544 16.4955C17.2868 15.4231 23.1589 15.6303 26.8695 17.8332C27.3149 18.097 27.4606 18.671 27.1967 19.1149C26.934 19.5593 26.3584 19.7058 25.9154 19.4419H25.9149Z" fill="black" fill-opacity="0.08"/>
</svg>
