<svg width="75" height="84" viewBox="0 0 75 84" fill="none" xmlns="http://www.w3.org/2000/svg">
<rect x="3.57617" y="25.4209" width="55.3958" height="55.3958" rx="8" transform="rotate(-15 3.57617 25.4209)" fill="#222424"/>
<path d="M44.8412 38.0515C40.3335 36.8942 33.0981 35.0353 21.8744 32.1483C21.0998 31.8872 20.3281 32.0325 19.7343 32.4304L40.9782 44.7994L44.8412 38.0515Z" fill="#32BBFF"/>
<path d="M19.7339 32.4304C19.6227 32.5049 19.517 32.5873 19.4193 32.6787C18.803 33.2652 18.4755 34.164 18.7319 35.121L26.5515 64.3038C26.8079 65.2607 27.5408 65.8753 28.3679 66.0751C28.4979 66.1054 28.6305 66.1241 28.7642 66.1334L40.9777 44.7992L19.7339 32.4304Z" fill="#32BBFF"/>
<path d="M40.9785 44.7986L28.765 66.1328C29.4787 66.1821 30.2209 65.9265 30.7597 65.3067C38.786 57.4394 44.063 52.2727 47.4284 48.9858C47.5221 48.8937 47.6137 48.8038 47.7044 48.7147L40.9785 44.7986Z" fill="#32BBFF"/>
<path d="M22.6411 49.7122L26.5509 64.3036C26.8073 65.2605 27.5402 65.8751 28.3673 66.0749C28.4973 66.1052 28.63 66.1239 28.7636 66.1332L40.9771 44.799L22.6411 49.7122Z" fill="#2C9FD9"/>
<path d="M21.8739 32.147C20.9541 31.8369 20.0376 32.0984 19.4193 32.6776L40.7923 45.1217L44.8407 38.0501C40.3331 36.8929 33.0977 35.0339 21.8739 32.147Z" fill="#29CC5E"/>
<path d="M40.6555 44.61L28.3678 66.0736C29.1929 66.2659 30.1193 66.0415 30.7588 65.3056C38.7852 57.4384 44.0623 52.2717 47.4277 48.9848C47.5213 48.8928 47.613 48.8028 47.7037 48.7137L40.6555 44.61Z" fill="#D93F21"/>
<path d="M53.2522 41.509C53.0356 40.7005 52.4119 39.9929 51.4878 39.7556C51.4878 39.7556 49.7606 39.314 44.4641 37.9543L40.4681 44.9345L47.4257 48.9855C51.2871 45.192 52.6009 43.9097 52.6009 43.9097C53.2825 43.2421 53.4689 42.3176 53.2522 41.509Z" fill="#FFD500"/>
<path d="M52.6021 43.9106C53.2837 43.243 53.4701 42.3185 53.2534 41.5099L40.4693 44.9354L47.4269 48.9864C51.2884 45.1929 52.6021 43.9106 52.6021 43.9106Z" fill="#FFAA00"/>
<path d="M8.99988 79.6625C11.3672 78.7077 13.1764 77.0336 14.0354 75.0028C14.0872 74.8765 14.9812 78.9958 17.9999 79.7888C17.9999 79.7888 14.3636 81.1923 13.5042 83.9993C13.4826 84.0449 13.2753 81.7818 8.99988 79.6625Z" fill="#231F20"/>
<path d="M71 42.0722C72.0522 41.6479 72.8562 40.9038 73.238 40.0013C73.261 39.9451 73.6583 41.7759 75 42.1284C75 42.1284 73.3839 42.7521 73.0019 43.9997C72.9923 44.02 72.9002 43.0141 71 42.0722Z" fill="#231F20"/>
<path d="M0.000563727 18.0752C0.00700613 18.3166 0.0967037 18.5484 0.254465 18.7313C0.412226 18.9142 0.628354 19.0369 0.866238 19.0787C1.10412 19.1205 1.34914 19.0788 1.55979 18.9607C1.77044 18.8425 1.93378 18.6552 2.02214 18.4304C2.11049 18.2056 2.11843 17.9572 2.04462 17.7272C1.9708 17.4972 1.81977 17.2998 1.61709 17.1685C1.41442 17.0371 1.17257 16.9798 0.932501 17.0063C0.692433 17.0328 0.468908 17.1415 0.299786 17.314C0.20034 17.4135 0.122448 17.5325 0.0709699 17.6634C0.019492 17.7944 -0.00447259 17.9346 0.000563727 18.0752Z" fill="#231F20"/>
<path d="M63.0004 76.7398C63.0045 76.9063 63.066 77.0662 63.1745 77.1925C63.2831 77.3189 63.4319 77.4038 63.5959 77.4329C63.7599 77.4621 63.9289 77.4336 64.0743 77.3524C64.2197 77.2712 64.3326 77.1422 64.3937 76.9873C64.4549 76.8324 64.4607 76.6611 64.41 76.5024C64.3593 76.3438 64.2554 76.2075 64.1158 76.1167C63.9761 76.0259 63.8094 75.9862 63.6439 76.0043C63.4783 76.0223 63.3241 76.0971 63.2073 76.2159C63.138 76.2838 63.0837 76.3655 63.0481 76.4558C63.0124 76.546 62.9962 76.6428 63.0004 76.7398Z" fill="#231F20"/>
<path d="M60.5428 9.03767C60.5533 9.17738 60.3467 9.14064 59.9499 9.04587C59.7749 8.99163 59.6146 8.90673 59.4782 8.79614C59.426 8.69382 59.3875 8.58623 59.3636 8.47555C59.4609 8.13087 59.587 7.7927 59.741 7.46387C59.8332 7.2514 59.9638 7.05315 60.1276 6.877C60.432 6.52508 60.7097 6.17917 60.9567 5.8476C61.017 5.77455 61.0945 5.71392 61.1836 5.67007C61.4735 5.51021 61.6989 5.27224 61.8261 4.99181C61.8639 4.94538 61.8699 4.88457 61.8415 4.83411C61.9041 4.53632 62.0373 4.25266 62.2323 4.00206C62.4979 3.85776 62.5959 3.65374 62.8825 3.4878C62.9168 3.46116 62.9003 3.42225 63.0132 3.41782C63.2655 3.39895 63.2644 3.32277 63.3137 3.25486C63.3784 3.14967 63.4579 3.05199 63.5502 2.96421C63.6412 2.91266 63.7384 2.87038 63.8398 2.83819C63.982 2.8172 64.1273 2.83133 64.2597 2.87905C64.3416 2.94518 64.4939 2.92175 64.6213 2.92828C64.6618 2.92525 64.7159 2.92121 64.7492 2.9428C64.8699 3.07975 64.9667 3.23212 65.0367 3.39497C65.1364 3.56649 65.2067 3.75061 65.2452 3.94136L65.2385 4.15461C65.2391 4.22607 65.2339 4.29756 65.2228 4.36853C65.2062 4.44775 65.1833 4.52593 65.1542 4.60247C65.0654 4.93023 64.9121 5.24276 64.895 5.3163C64.8778 5.38983 64.7904 5.4325 64.7168 5.47814C64.6432 5.52379 64.5854 5.72078 64.4667 5.95044C64.3838 6.10561 64.2923 6.25715 64.1925 6.40446C64.0402 6.54832 63.9593 6.73902 63.6727 6.78453C63.6187 6.78857 63.5988 6.82619 63.5739 6.85615C63.3433 7.10186 63.0778 7.32011 62.7842 7.50527C62.6533 7.60911 62.53 7.72023 62.4149 7.83796C62.3924 7.83964 62.3519 7.84267 62.3224 7.87297C62.2832 7.88366 62.2462 7.9 62.2128 7.92131C61.9172 8.14875 61.6433 8.3975 61.3939 8.66494C61.3488 8.72852 60.9259 8.8886 60.8955 8.96714C60.8651 9.04568 60.5297 8.98245 60.5428 9.03767Z" fill="#222424"/>
<path d="M57.0704 8.33116C57.1075 8.4585 56.9216 8.49436 56.6314 8.4588C56.5006 8.43148 56.3776 8.3754 56.2712 8.29461C56.2245 8.21608 56.1827 8.13479 56.1459 8.0512C56.1332 8.00763 56.175 7.41398 56.1506 7.21755C56.1386 7.03372 56.1484 6.84912 56.1797 6.66758C56.2241 6.31411 56.242 5.95783 56.2332 5.60169C56.229 5.5217 56.243 5.4418 56.2743 5.36805C56.3661 5.1071 56.374 4.82396 56.2969 4.55829C56.2842 4.51473 56.2716 4.47116 56.2191 4.42827C56.1357 4.29815 56.0808 4.15187 56.058 3.99902C56.0149 3.84861 56 3.69151 56.0141 3.53568C56.0837 3.28449 56.1306 3.02758 56.1544 2.76803C56.1446 2.73452 56.1339 2.69766 56.1931 2.65137C56.3412 2.53563 56.2953 2.46538 56.2863 2.3844C56.2727 2.26939 56.2769 2.15296 56.2986 2.0392C56.3098 1.97779 56.3891 1.90024 56.4472 1.82519C56.5474 1.76171 56.6636 1.72793 56.7823 1.72776C56.873 1.75226 56.9733 1.67222 57.0738 1.64299C57.1073 1.63325 57.1509 1.62058 57.1777 1.61279C57.4429 1.7733 57.6775 1.97946 57.8708 2.22172L57.9196 2.38927C57.9478 2.48645 58.0059 2.6113 58.0549 2.74242C58.1597 3.00271 58.2492 3.2856 58.2768 3.34299C58.3044 3.40039 58.2774 3.47002 58.2638 3.53576L58.3546 3.98546C58.3935 4.20675 58.4257 4.42999 58.4272 4.44772C58.406 4.6247 58.4543 4.80328 58.3079 4.98756C58.2746 5.02271 58.2809 5.0572 58.2806 5.09363C58.2669 5.40188 58.2086 5.70652 58.1075 5.99804C58.0607 6.14974 58.0591 6.3065 58.019 6.45625C58.0258 6.47971 57.9862 6.50578 57.9719 6.53173C57.9505 6.56212 57.9332 6.59526 57.9206 6.63024C57.8503 6.98866 57.6807 7.31781 57.6076 7.66618C57.5888 7.75159 57.318 8.07019 57.2959 8.15658C57.2737 8.24297 57.0582 8.27657 57.0704 8.33116Z" fill="#222424"/>
<path d="M61.059 12.1959C61.0016 12.3033 60.8948 12.2014 60.7501 11.9988C60.6899 11.9027 60.651 11.7852 60.6381 11.6606C60.6619 11.5651 60.6935 11.4737 60.7324 11.3883C60.9487 11.1441 61.1857 10.9359 61.4384 10.7682C61.6151 10.6402 61.8067 10.5539 62.0054 10.5128C62.3976 10.4236 62.7959 10.3847 63.1949 10.3967C63.2867 10.3933 63.3783 10.4189 63.4626 10.4715C63.7354 10.6189 64.017 10.7313 64.3039 10.8072C64.353 10.835 64.4079 10.8331 64.4549 10.8022C64.558 10.7114 65.297 11.0833 65.3722 11.1899C65.5687 11.4344 65.7547 11.6864 65.9275 11.9353C65.9525 11.9709 65.995 11.9731 65.9954 12.064C65.9975 12.1949 66.0437 12.3183 66.1206 12.3982C66.1949 12.509 66.2619 12.6285 66.3208 12.7553C66.3497 12.8402 66.3697 12.9302 66.3801 13.0225C66.3961 13.1056 66.3105 13.2431 66.2897 13.2547C66.2294 13.2749 66.2276 13.3804 66.2033 13.4467C66.1957 13.4728 66.1858 13.4976 66.1739 13.5204C66.1745 13.5386 65.9974 13.5554 65.8133 13.6016C65.6292 13.6477 65.4334 13.7416 65.4136 13.7022C65.3937 13.6629 64.6457 13.4223 64.5657 13.4067C64.4856 13.3912 64.4891 13.3365 64.4556 13.2867C64.4221 13.2369 63.8454 13.1216 63.8266 13.1149C63.7153 13.0386 63.589 13.0683 63.5028 12.8674C63.487 12.8371 63.4617 12.819 63.4348 12.8188C63.3327 12.8037 63.2328 12.7652 63.1393 12.7049C63.0444 12.6426 62.9472 12.5913 62.8498 12.5327C62.7499 12.4901 62.6478 12.4595 62.5444 12.441C62.5259 12.4416 62.5062 12.4096 62.4872 12.3956C62.4667 12.3785 62.4436 12.3681 62.4199 12.3651C62.1788 12.2963 61.932 12.2811 61.6891 12.3204C61.6219 12.3183 61.5549 12.3071 61.4891 12.2871C61.4201 12.2752 61.3505 12.2775 61.2824 12.2939C61.2419 12.2854 61.2027 12.267 61.1666 12.2396C61.1173 12.194 61.0716 12.1737 61.059 12.1959Z" fill="#222424"/>
</svg>
