<svg width="74" height="79" viewBox="0 0 74 79" fill="none" xmlns="http://www.w3.org/2000/svg">
<g clip-path="url(#clip0_9_1197)">
<g opacity="0.6" filter="url(#filter0_f_9_1197)">
<path d="M57 65C57 67.7614 48.0457 70 37 70C25.9543 70 17 67.7614 17 65C17 62.2386 25.9543 60 37 60C48.0457 60 57 62.2386 57 65Z" fill="#59D76D"/>
</g>
<g filter="url(#filter1_i_9_1197)">
<rect x="16.8983" y="3" width="57.5626" height="57.5626" rx="28.7813" transform="rotate(15 16.8983 3)" fill="url(#paint0_linear_9_1197)"/>
</g>
<path d="M32.0616 25.2751L31.8466 25.7265L31.8491 25.7276L32.0616 25.2751ZM36.879 30.9596L36.8925 31.4594C37.075 31.4545 37.2404 31.3504 37.3238 31.1879C37.4072 31.0254 37.3954 30.8303 37.2929 30.6791L36.879 30.9596ZM29.6529 30.4443L29.8663 29.9921L29.8635 29.9908L29.6529 30.4443ZM41.9384 25.2751L41.7396 24.8163C41.7352 24.8182 41.7309 24.8201 41.7266 24.8221L41.9384 25.2751ZM37.1153 30.9596L36.7013 30.6791C36.5989 30.8303 36.587 31.0254 36.6704 31.1879C36.7538 31.3504 36.9192 31.4545 37.1018 31.4594L37.1153 30.9596ZM44.3413 30.4443L44.5547 30.8967L44.567 30.8905L44.3413 30.4443ZM26.3152 40.8952C26.3152 40.6191 26.0913 40.3952 25.8152 40.3952C25.539 40.3952 25.3152 40.6191 25.3152 40.8952H26.3152ZM48.6791 40.8952C48.6791 40.6191 48.4552 40.3952 48.1791 40.3952C47.9029 40.3952 47.6791 40.6191 47.6791 40.8952H48.6791ZM31.8491 25.7276C31.9629 25.7811 32.1294 25.896 32.3455 26.086C32.5562 26.2711 32.7921 26.5079 33.0441 26.7823C33.5479 27.3309 34.0957 28.0077 34.6053 28.6714C35.1138 29.3338 35.5792 29.9765 35.9177 30.4541C36.0868 30.6927 36.224 30.8897 36.3188 31.0269C36.3662 31.0954 36.4029 31.149 36.4277 31.1853C36.4401 31.2034 36.4496 31.2172 36.4558 31.2264C36.459 31.231 36.4613 31.2345 36.4629 31.2368C36.4636 31.2379 36.4642 31.2387 36.4646 31.2393C36.4647 31.2395 36.4649 31.2397 36.4649 31.2399C36.465 31.2399 36.465 31.2399 36.465 31.24C36.465 31.24 36.465 31.24 36.879 30.9596C37.2929 30.6791 37.2929 30.6791 37.2929 30.679C37.2928 30.679 37.2928 30.6789 37.2927 30.6788C37.2926 30.6786 37.2924 30.6783 37.2922 30.678C37.2917 30.6773 37.2911 30.6763 37.2902 30.6751C37.2884 30.6725 37.2859 30.6687 37.2826 30.6638C37.2759 30.654 37.266 30.6396 37.2532 30.6208C37.2275 30.5832 37.1898 30.5283 37.1415 30.4583C37.0448 30.3184 36.9053 30.1181 36.7335 29.8758C36.3903 29.3916 35.9171 28.738 35.3985 28.0625C34.8809 27.3883 34.3129 26.6855 33.7806 26.1059C33.5145 25.8162 33.2523 25.5516 33.0057 25.3349C32.7646 25.123 32.5148 24.9355 32.2742 24.8225L31.8491 25.7276ZM36.879 30.9596C36.8655 30.4597 36.8655 30.4597 36.8655 30.4597C36.8655 30.4597 36.8655 30.4597 36.8654 30.4597C36.8652 30.4597 36.865 30.4597 36.8647 30.4598C36.8641 30.4598 36.8631 30.4598 36.8618 30.4598C36.8592 30.4599 36.8552 30.46 36.8498 30.4601C36.8391 30.4604 36.8231 30.4608 36.802 30.4613C36.7599 30.4622 36.6976 30.4636 36.6177 30.465C36.4578 30.468 36.2275 30.4714 35.9464 30.4735C35.3839 30.4776 34.6202 30.4762 33.8135 30.4539C33.0053 30.4317 32.1612 30.3888 31.4358 30.311C30.6873 30.2307 30.1367 30.1197 29.8663 29.9921L29.4396 30.8966C29.8809 31.1047 30.5893 31.226 31.3292 31.3053C32.092 31.3871 32.9655 31.431 33.7859 31.4536C34.6078 31.4762 35.3837 31.4777 35.9537 31.4735C36.2389 31.4714 36.473 31.4679 36.636 31.4649C36.7176 31.4634 36.7814 31.462 36.8249 31.461C36.8467 31.4605 36.8634 31.4601 36.8748 31.4598C36.8805 31.4597 36.8848 31.4596 36.8878 31.4595C36.8892 31.4595 36.8904 31.4594 36.8912 31.4594C36.8915 31.4594 36.8919 31.4594 36.8921 31.4594C36.8922 31.4594 36.8923 31.4594 36.8923 31.4594C36.8924 31.4594 36.8925 31.4594 36.879 30.9596ZM29.8635 29.9908C29.5837 29.8609 29.3321 29.6767 29.1231 29.4487L28.3858 30.1242C28.6837 30.4494 29.0427 30.7123 29.4424 30.8979L29.8635 29.9908ZM29.1231 29.4487C28.9142 29.2206 28.752 28.9532 28.6461 28.6617L27.7062 29.0033C27.857 29.4181 28.0879 29.7991 28.3858 30.1242L29.1231 29.4487ZM28.6461 28.6617C28.5402 28.3703 28.4926 28.0606 28.5061 27.7505L27.5071 27.7068C27.4878 28.1479 27.5555 28.5885 27.7062 29.0033L28.6461 28.6617ZM28.5061 27.7505C28.5197 27.4404 28.5941 27.1361 28.725 26.8551L27.8186 26.4328C27.6322 26.8328 27.5264 27.2657 27.5071 27.7068L28.5061 27.7505ZM28.725 26.8551C28.8559 26.5742 29.0408 26.3221 29.2687 26.1134L28.5935 25.3758C28.2683 25.6736 28.005 26.0328 27.8186 26.4328L28.725 26.8551ZM29.2687 26.1134C29.4967 25.9046 29.7634 25.7433 30.0534 25.6386L29.7136 24.6981C29.2993 24.8477 28.9186 25.0781 28.5935 25.3758L29.2687 26.1134ZM30.0534 25.6386C30.3433 25.5338 30.651 25.4877 30.9587 25.5028L31.0076 24.504C30.5678 24.4824 30.128 24.5484 29.7136 24.6981L30.0534 25.6386ZM30.9587 25.5028C31.2664 25.5179 31.5681 25.5939 31.8466 25.7265L32.2766 24.8236C31.8788 24.6342 31.4475 24.5255 31.0076 24.504L30.9587 25.5028ZM41.7266 24.8221C41.4852 24.935 41.2346 25.1225 40.9929 25.3345C40.7456 25.5513 40.4828 25.8158 40.2163 26.1056C39.6831 26.6853 39.1145 27.3881 38.5966 28.0623C38.0776 28.7379 37.6042 29.3915 37.2608 29.8758C37.089 30.1181 36.9495 30.3184 36.8528 30.4583C36.8044 30.5283 36.7667 30.5832 36.7411 30.6208C36.7282 30.6396 36.7184 30.654 36.7117 30.6638C36.7083 30.6687 36.7058 30.6725 36.7041 30.6751C36.7032 30.6763 36.7025 30.6773 36.7021 30.678C36.7018 30.6783 36.7016 30.6786 36.7015 30.6788C36.7015 30.6789 36.7014 30.679 36.7014 30.679C36.7013 30.6791 36.7013 30.6791 37.1153 30.9596C37.5292 31.24 37.5292 31.24 37.5292 31.24C37.5292 31.2399 37.5293 31.2399 37.5293 31.2399C37.5294 31.2397 37.5295 31.2395 37.5297 31.2393C37.53 31.2387 37.5306 31.2379 37.5314 31.2368C37.5329 31.2345 37.5353 31.231 37.5384 31.2264C37.5447 31.2172 37.5541 31.2034 37.5665 31.1853C37.5913 31.149 37.6281 31.0954 37.6754 31.0269C37.7702 30.8898 37.9074 30.6928 38.0766 30.4542C38.4152 29.9766 38.8807 29.3339 39.3896 28.6716C39.8995 28.0078 40.4477 27.3312 40.9523 26.7826C41.2047 26.5082 41.441 26.2715 41.6521 26.0864C41.8687 25.8965 42.0358 25.7815 42.1502 25.728L41.7266 24.8221ZM37.1153 30.9596C37.1018 31.4594 37.1018 31.4594 37.1019 31.4594C37.102 31.4594 37.1021 31.4594 37.1022 31.4594C37.1024 31.4594 37.1027 31.4594 37.1031 31.4594C37.1039 31.4594 37.105 31.4595 37.1065 31.4595C37.1094 31.4596 37.1138 31.4597 37.1195 31.4598C37.1308 31.4601 37.1475 31.4605 37.1693 31.461C37.2129 31.462 37.2767 31.4634 37.3582 31.4649C37.5212 31.4679 37.7553 31.4714 38.0405 31.4735C38.6105 31.4777 39.3864 31.4762 40.2083 31.4536C41.0287 31.431 41.9022 31.3871 42.6651 31.3053C43.405 31.226 44.1134 31.1047 44.5546 30.8965L44.128 29.9921C43.8576 30.1197 43.3069 30.2307 42.5585 30.311C41.833 30.3888 40.989 30.4317 40.1808 30.4539C39.374 30.4762 38.6103 30.4776 38.0478 30.4735C37.7668 30.4714 37.5364 30.468 37.3765 30.465C37.2966 30.4636 37.2343 30.4622 37.1922 30.4613C37.1711 30.4608 37.1551 30.4604 37.1444 30.4601C37.1391 30.46 37.1351 30.4599 37.1324 30.4598C37.1311 30.4598 37.1302 30.4598 37.1295 30.4598C37.1292 30.4597 37.129 30.4597 37.1289 30.4597C37.1288 30.4597 37.1288 30.4597 37.1287 30.4597C37.1287 30.4597 37.1287 30.4597 37.1153 30.9596ZM44.567 30.8905C45.3433 30.4977 45.936 29.817 46.2202 28.9933L45.2749 28.6671C45.0752 29.246 44.6591 29.7232 44.1156 29.9982L44.567 30.8905ZM46.2202 28.9933C46.5044 28.1697 46.458 27.2673 46.0908 26.4773L45.184 26.8989C45.442 27.4539 45.4747 28.0882 45.2749 28.6671L46.2202 28.9933ZM46.0908 26.4773C45.7236 25.6873 45.0641 25.0714 44.2516 24.761L43.8947 25.6952C44.4633 25.9124 44.9261 26.3439 45.184 26.8989L46.0908 26.4773ZM44.2516 24.761C43.439 24.4506 42.5379 24.4704 41.7396 24.8163L42.1371 25.7338C42.6958 25.4918 43.3261 25.478 43.8947 25.6952L44.2516 24.761ZM25.3152 40.8952V48.6845H26.3152V40.8952H25.3152ZM25.3152 48.6845C25.3152 49.4305 25.6101 50.1464 26.1359 50.6746L26.8446 49.9691C26.5059 49.6288 26.3152 49.1668 26.3152 48.6845H25.3152ZM26.1359 50.6746C26.6618 51.2028 27.3755 51.5 28.1201 51.5V50.5C27.6422 50.5 27.1833 50.3093 26.8446 49.9691L26.1359 50.6746ZM28.1201 51.5H45.8741V50.5H28.1201V51.5ZM45.8741 51.5C46.6188 51.5 47.3325 51.2028 47.8583 50.6746L47.1496 49.9691C46.8109 50.3093 46.3521 50.5 45.8741 50.5V51.5ZM47.8583 50.6746C48.3841 50.1464 48.6791 49.4305 48.6791 48.6845H47.6791C47.6791 49.1668 47.4884 49.6288 47.1496 49.9691L47.8583 50.6746ZM48.6791 48.6845V40.8952H47.6791V48.6845H48.6791ZM36.879 37.2367H48.8475V36.2367H36.879V37.2367ZM48.8475 37.2367C49.2865 37.2367 49.7071 37.0615 50.0168 36.7503L49.3081 36.0448C49.1856 36.1679 49.0198 36.2367 48.8475 36.2367V37.2367ZM50.0168 36.7503C50.3264 36.4393 50.5 36.0178 50.5 35.5789H49.5C49.5 35.7541 49.4307 35.9217 49.3081 36.0448L50.0168 36.7503ZM50.5 35.5789V32.1057H49.5V35.5789H50.5ZM50.5 32.1057C50.5 31.6668 50.3264 31.2454 50.0168 30.9343L49.3081 31.6398C49.4307 31.763 49.5 31.9305 49.5 32.1057H50.5ZM50.0168 30.9343C49.7071 30.6232 49.2865 30.448 48.8475 30.448V31.448C49.0198 31.448 49.1855 31.5167 49.3081 31.6398L50.0168 30.9343ZM48.8475 30.448H25.1525V31.448H48.8475V30.448ZM25.1525 30.448C24.7135 30.448 24.2929 30.6232 23.9832 30.9343L24.6919 31.6398C24.8145 31.5167 24.9802 31.448 25.1525 31.448V30.448ZM23.9832 30.9343C23.6736 31.2454 23.5 31.6668 23.5 32.1057H24.5C24.5 31.9305 24.5693 31.763 24.6919 31.6398L23.9832 30.9343ZM23.5 32.1057V35.5789H24.5V32.1057H23.5ZM23.5 35.5789C23.5 36.0178 23.6735 36.4393 23.9832 36.7503L24.6919 36.0448C24.5693 35.9217 24.5 35.7541 24.5 35.5789H23.5ZM23.9832 36.7503C24.2929 37.0615 24.7135 37.2367 25.1525 37.2367V36.2367C24.9801 36.2367 24.8144 36.1679 24.6919 36.0448L23.9832 36.7503ZM25.1525 37.2367H36.879V36.2367H25.1525V37.2367ZM36.379 31.0695V50.9132H37.379V31.0695H36.379Z" fill="white"/>
<g filter="url(#filter2_bdi_9_1197)">
<path d="M39.5655 58.8431C39.5655 50.9351 45.9762 44.5244 53.8842 44.5244V44.5244C61.7922 44.5244 68.2029 50.9351 68.2029 58.8431V58.8431C68.2029 66.7511 61.7922 73.1618 53.8842 73.1618V73.1618C45.9762 73.1618 39.5655 66.7511 39.5655 58.8431V58.8431Z" fill="#54D768" fill-opacity="0.24" shape-rendering="crispEdges"/>
<path d="M39.5655 58.8431C39.5655 50.9351 45.9762 44.5244 53.8842 44.5244V44.5244C61.7922 44.5244 68.2029 50.9351 68.2029 58.8431V58.8431C68.2029 66.7511 61.7922 73.1618 53.8842 73.1618V73.1618C45.9762 73.1618 39.5655 66.7511 39.5655 58.8431V58.8431Z" fill="black" fill-opacity="0.06" shape-rendering="crispEdges"/>
<path d="M53.8842 72.6618C46.2523 72.6618 40.0655 66.475 40.0655 58.8431C40.0655 51.2112 46.2523 45.0244 53.8842 45.0244C61.516 45.0244 67.7029 51.2112 67.7029 58.8431C67.7029 66.475 61.516 72.6618 53.8842 72.6618Z" stroke="url(#paint1_linear_9_1197)" shape-rendering="crispEdges"/>
</g>
<path fill-rule="evenodd" clip-rule="evenodd" d="M49.0992 58.9351C49.0992 58.8021 49.2064 58.6944 49.3387 58.6944L53.6719 58.6944L53.6719 54.3405C53.6719 54.2076 53.7792 54.0999 53.9114 54.0999C54.0437 54.0999 54.151 54.2076 54.151 54.3405L54.151 58.6944L58.4842 58.6944C58.6164 58.6944 58.7237 58.8022 58.7237 58.9351C58.7237 59.068 58.6164 59.1757 58.4842 59.1757L54.151 59.1757L54.151 63.5296C54.151 63.6625 54.0437 63.7702 53.9114 63.7702C53.7792 63.7702 53.6719 63.6625 53.6719 63.5296L53.6719 59.1757L49.3387 59.1757C49.2064 59.1757 49.0992 59.068 49.0992 58.9351Z" fill="white" stroke="white" stroke-linecap="round" stroke-linejoin="round"/>
</g>
<defs>
<filter id="filter0_f_9_1197" x="5" y="48" width="64" height="34" filterUnits="userSpaceOnUse" color-interpolation-filters="sRGB">
<feFlood flood-opacity="0" result="BackgroundImageFix"/>
<feBlend mode="normal" in="SourceGraphic" in2="BackgroundImageFix" result="shape"/>
<feGaussianBlur stdDeviation="6" result="effect1_foregroundBlur_9_1197"/>
</filter>
<filter id="filter1_i_9_1197" x="8.4613" y="9.4613" width="57.5769" height="61.5769" filterUnits="userSpaceOnUse" color-interpolation-filters="sRGB">
<feFlood flood-opacity="0" result="BackgroundImageFix"/>
<feBlend mode="normal" in="SourceGraphic" in2="BackgroundImageFix" result="shape"/>
<feColorMatrix in="SourceAlpha" type="matrix" values="0 0 0 0 0 0 0 0 0 0 0 0 0 0 0 0 0 0 127 0" result="hardAlpha"/>
<feOffset dy="4"/>
<feGaussianBlur stdDeviation="5"/>
<feComposite in2="hardAlpha" operator="arithmetic" k2="-1" k3="1"/>
<feColorMatrix type="matrix" values="0 0 0 0 1 0 0 0 0 1 0 0 0 0 1 0 0 0 0.25 0"/>
<feBlend mode="normal" in2="shape" result="effect1_innerShadow_9_1197"/>
</filter>
<filter id="filter2_bdi_9_1197" x="21.5655" y="25.5244" width="55.6374" height="56.6373" filterUnits="userSpaceOnUse" color-interpolation-filters="sRGB">
<feFlood flood-opacity="0" result="BackgroundImageFix"/>
<feGaussianBlur in="BackgroundImageFix" stdDeviation="4.5"/>
<feComposite in2="SourceAlpha" operator="in" result="effect1_backgroundBlur_9_1197"/>
<feColorMatrix in="SourceAlpha" type="matrix" values="0 0 0 0 0 0 0 0 0 0 0 0 0 0 0 0 0 0 127 0" result="hardAlpha"/>
<feOffset dx="-6" dy="-7"/>
<feGaussianBlur stdDeviation="6"/>
<feComposite in2="hardAlpha" operator="out"/>
<feColorMatrix type="matrix" values="0 0 0 0 0.216667 0 0 0 0 0.216667 0 0 0 0 0.216667 0 0 0 0.12 0"/>
<feBlend mode="normal" in2="effect1_backgroundBlur_9_1197" result="effect2_dropShadow_9_1197"/>
<feBlend mode="normal" in="SourceGraphic" in2="effect2_dropShadow_9_1197" result="shape"/>
<feColorMatrix in="SourceAlpha" type="matrix" values="0 0 0 0 0 0 0 0 0 0 0 0 0 0 0 0 0 0 127 0" result="hardAlpha"/>
<feOffset dy="4"/>
<feGaussianBlur stdDeviation="2"/>
<feComposite in2="hardAlpha" operator="arithmetic" k2="-1" k3="1"/>
<feColorMatrix type="matrix" values="0 0 0 0 1 0 0 0 0 1 0 0 0 0 1 0 0 0 0.25 0"/>
<feBlend mode="normal" in2="shape" result="effect3_innerShadow_9_1197"/>
</filter>
<linearGradient id="paint0_linear_9_1197" x1="72.0489" y1="5.64585" x2="21.9615" y2="57.8023" gradientUnits="userSpaceOnUse">
<stop stop-color="#6EF182"/>
<stop offset="1" stop-color="#4AD15F"/>
</linearGradient>
<linearGradient id="paint1_linear_9_1197" x1="40.711" y1="73.1618" x2="67.4869" y2="45.8131" gradientUnits="userSpaceOnUse">
<stop stop-color="white" stop-opacity="0"/>
<stop offset="1" stop-color="white" stop-opacity="0.17"/>
</linearGradient>
<clipPath id="clip0_9_1197">
<rect width="74" height="79" fill="white"/>
</clipPath>
</defs>
</svg>
