<svg width="23" height="27" viewBox="0 0 23 27" fill="none" xmlns="http://www.w3.org/2000/svg">
<path d="M0 6.82304C2.81825 5.42837 4.97221 2.97782 5.99378 0.003932C6.05916 -0.175841 7.12145 5.86289 10.7006 7.02732C10.7006 7.02732 6.36967 9.10288 5.34415 13.2131C5.34824 13.2703 5.09901 9.94863 0 6.82304Z" fill="#2A80FF"/>
<path d="M5.37915 20.8661C7.69955 19.7163 9.47089 17.6953 10.3066 15.2442C10.3597 15.0971 11.2299 20.0653 14.188 21.0214C14.188 21.0214 10.6293 22.7292 9.78358 26.1082C9.77132 26.1531 9.56704 23.4238 5.37915 20.8661Z" fill="#2A80FF"/>
<path d="M13.5968 11.6096C15.8365 10.4978 17.5481 8.54845 18.3608 6.18373C18.4098 6.03664 19.2556 10.8333 22.1115 11.7567C22.1115 11.7567 18.6713 13.391 17.8582 16.6596C17.8378 16.7127 17.6417 14.0774 13.5968 11.6096Z" fill="#2A80FF"/>
</svg>
